<svg width="256" height="256" xmlns="http://www.w3.org/2000/svg" xmlns:xlink="http://www.w3.org/1999/xlink" xml:space="preserve" overflow="hidden"><g transform="translate(-925 -461)"><path d="M1088.77 587.158C1088.79 587.774 1088.83 588.41 1088.83 589.008 1088.83 608.755 1072.79 624.751 1053 624.751 1052.36 624.751 1051.76 624.712 1051.14 624.693ZM1053.02 553.307C1053.63 553.307 1054.25 553.307 1054.89 553.366L1017.26 590.901C1017.23 590.284 1017.21 589.648 1017.21 589.047 1017.21 569.304 1033.24 553.307 1053.02 553.307ZM1138.14 537.893C1154.46 550.945 1167.7 567.647 1176.61 586.758 1177.29 588.193 1177.29 589.849 1176.61 591.242 1154.94 637.718 1107.75 669.923 1053 669.923 1038.76 669.923 1024.98 667.751 1012.07 663.686L1034.2 641.604C1040.08 643.699 1046.43 644.851 1053.02 644.851 1083.92 644.851 1108.98 619.864 1108.98 589.012 1108.98 582.433 1107.82 576.099 1105.73 570.238ZM1053.01 508.104C1067.27 508.104 1081.04 510.299 1093.96 514.364L1071.83 536.439C1065.93 534.328 1059.6 533.192 1052.99 533.192 1022.09 533.192 997.033 558.16 997.033 589.004 997.033 595.602 998.173 601.916 1000.27 607.797L967.869 640.134C951.527 627.086 938.304 610.364 929.371 591.277 928.712 589.842 928.712 588.189 929.371 586.774 951.046 540.306 998.251 508.104 1053.01 508.104ZM1136.89 492.03C1140.31 492.03 1143.72 493.307 1146.32 495.897 1151.51 501.08 1151.51 509.508 1146.32 514.69L1129.5 531.489 1100.9 560.026 1085.96 574.932 1038.92 621.842 1023.98 636.748 1001.03 659.664 978.539 682.083C975.944 684.655 972.527 685.97 969.113 685.97 965.716 685.97 962.302 684.694 959.684 682.083 954.491 676.901 954.491 668.473 959.684 663.291L976.522 646.511 1005.12 617.975 1020.07 603.068 1067.1 556.139 1082.04 541.233 1105 518.336 1127.46 495.897C1130.08 493.326 1133.5 492.03 1136.89 492.03Z" fill="#7F7F7F" fill-rule="evenodd"/></g></svg>